{"title":"Spandan 2012 Marathi 720p Untouched WebHD x264 AAC [TMB]","uid":15538099,"size":722932314,"categoryP":"video","categoryS":"movies","magnet":"?xt=urn:btih:85d0d0155ff800f20e74b2633acc477ab7601fff&amp;dn=Spandan+2012+Marathi+720p+Untouched+WebHD+x264+AAC+%5BTMB%5D&amp;tr=udp%3A%2F%2Ftracker.leechers-paradise.org%3A6969&amp;tr=udp%3A%2F%2Fzer0day.ch%3A1337&amp;tr=udp%3A%2F%2Fopen.demonii.com%3A1337&amp;tr=udp%3A%2F%2Ftracker.coppersurfer.tk%3A6969&amp;tr=udp%3A%2F%2Fexodus.desync.com%3A6969","seeders":1,"leechers":0,"uploader":"Manoj_vb","files":1,"time":1470902269,"description":"http://i1306.photobucket.com/albums/s570/zyx55e/44_zpsc46e809d.gif\r\n \nhttps://s25.postimg.org/4qfz6p6nz/vlcsnap_0402_11_06_15h09m40s110.png\r\n \nhttps://s25.postimg.org/a34tktukf/vlcsnap_3860_11_01_03h32m42s315.png\r\n \nhttps://s25.postimg.org/f329ss073/vlcsnap_3982_05_26_14h41m38s024.png\r\n \nhttps://s25.postimg.org/814c6kwlb/vlcsnap_5479_08_22_23h28m24s953.png\r\n \nhttps://s25.postimg.org/ljb8iv8qn/vlcsnap_5486_04_19_11h06m50s987.png\r\n \nhttps://s25.postimg.org/8gflzliin/vlcsnap_9768_06_16_17h40m58s141.png\r\n \nhttp://i1306.photobucket.com/albums/s570/zyx55e/oie_11162011MOJeDGQI_zpsc25b2b81.gif\r\n\r\nGeneral\r\nComplete name               : Spandan 2012 720p Untouched WebHD x264 AAC [TMB].mp4\r\nFormat                      : MPEG-4\r\nFormat profile              : Base Media / Version 2\r\nCodec ID                    : mp42 (isom/mp42)\r\nFile size                   : 689 MiB\r\nDuration                    : 1h 12mn\r\nOverall bit rate mode       : Variable\r\nOverall bit rate            : 1 333 Kbps\r\n\r\nVideo\r\nFormat                      : AVC\r\nFormat/Info                 : Advanced Video Codec\r\nFormat profile              :   \r\nFormat settings, CABAC      : Yes\r\nFormat settings, ReFrames   : 3 frames\r\nCodec ID                    : avc1\r\nCodec ID/Info               : Advanced Video Coding\r\nDuration                    : 1h 12mn\r\nBit rate                    : 1 204 Kbps\r\nWidth                       : 1 280 pixels\r\nHeight                      : 720 pixels\r\nDisplay aspect ratio        : 16:9\r\nFrame rate mode             : Constant\r\nFrame rate                  : 25.000 fps\r\nColor space                 : YUV\r\nChroma subsampling          : 4:2:0\r\nBit depth                   : 8 bits\r\nScan type                   : Progressive\r\nBits/(Pixel*Frame)          : 0.052\r\nStream size                 : 623 MiB (90%)\r\n\r\nAudio\r\nFormat                      : AAC\r\nFormat/Info                 : Advanced Audio Codec\r\nFormat profile              : LC\r\nCodec ID                    : 40\r\nDuration                    : 1h 12mn\r\nBit rate mode               : Variable\r\nBit rate                    : 126 Kbps\r\nChannel(s)                  : 2 channels\r\nChannel positions           : Front: L R\r\nSampling rate               : 44.1 KHz\r\nFrame rate                  : 43.066 fps (1024 spf)\r\nCompression mode            : Lossy\r\nStream size                 : 65.0 MiB (9%)\r\n\r\nUploaded &amp; Shared by Manojvb\r\n\r\nSeeding 24x7... Extreme Seeding...\r\n\r\n \nhttp://i1306.photobucket.com/albums/s570/zyx55e/oie_1117625zVIGKvnK_zpsc8b6e055.gif","torrent":{"xt":"urn:btih:85d0d0155ff800f20e74b2633acc477ab7601fff","amp;dn":"Spandan+2012+Marathi+720p+Untouched+WebHD+x264+AAC+%5BTMB%5D","amp;tr":["udp%3A%2F%2Ftracker.leechers-paradise.org%3A6969","udp%3A%2F%2Fzer0day.ch%3A1337","udp%3A%2F%2Fopen.demonii.com%3A1337","udp%3A%2F%2Ftracker.coppersurfer.tk%3A6969","udp%3A%2F%2Fexodus.desync.com%3A6969"],"infoHash":"85d0d0155ff800f20e74b2633acc477ab7601fff","infoHashBuffer":{"type":"Buffer","data":[133,208,208,21,95,248,0,242,14,116,178,99,58,204,71,122,183,96,31,255]},"announce":[],"urlList":[]}}